<?xml version="1.0" encoding="utf-8"?>
<!-- Generator: Adobe Illustrator 25.0.0, SVG Export Plug-In . SVG Version: 6.00 Build 0)  -->
<svg version="1.1" id="Layer_1" xmlns="http://www.w3.org/2000/svg" xmlns:xlink="http://www.w3.org/1999/xlink" x="0px" y="0px"
	 viewBox="0 0 1417.3 1417.3" style="enable-background:new 0 0 1417.3 1417.3;" xml:space="preserve">
<style type="text/css">
	.st0{fill:url(#SVGID_1_);}
	.st1{fill:url(#SVGID_2_);}
</style>
<g>
	<linearGradient id="SVGID_1_" gradientUnits="userSpaceOnUse" x1="956.6622" y1="1135.1293" x2="1227.8839" y2="1135.1293">
		<stop  offset="0" style="stop-color:#75C9BB"/>
		<stop  offset="1" style="stop-color:#469395"/>
	</linearGradient>
	<path class="st0" d="M1201.6,1032.1c-60.3-44.8-98.8,10.1-108.1,25.9c-0.6,0.9-1.8,0.9-2.4,0c-9.3-15.7-47.8-70.7-108.1-25.9
		c-21.1,15.7-55.5,84.7,20.9,147.9c18.3,15.2,56.5,41.6,76.3,61.5c4.2,4,8.3,8.6,11.9,13.8c0.1,0.1,0.3,0.1,0.4,0
		c3.7-5.2,7.7-9.8,11.9-13.8c19.9-19.9,58-46.3,76.3-61.5C1257,1116.8,1222.7,1047.8,1201.6,1032.1z M1098.3,1083
		c-0.8-0.6-1.3-1.5-1.3-2.5c0-1,0.5-1.9,1.3-2.5l36.9-27.2c0.9-0.7,2.2-0.8,3.2-0.3c1,0.5,1.7,1.6,1.7,2.8v11.2h48.4
		c0.8,0,1.6,0.3,2.2,0.9c0.6,0.6,0.9,1.4,0.9,2.2v26.2c0,0.8-0.3,1.6-0.9,2.2c-0.6,0.6-1.4,0.9-2.2,0.9h-48.4v11.2
		c0,1.2-0.7,2.2-1.7,2.8c-1,0.5-2.3,0.4-3.2-0.3L1098.3,1083z M1191.6,1140l-36.9,27.3c-1,0.7-2.3,0.8-3.4,0.3
		c-1.1-0.6-1.8-1.7-1.8-2.9v-11H1105c-0.9,0-1.7-0.3-2.3-1c-0.6-0.6-0.9-1.4-0.9-2.3v-26.2c0-0.9,0.3-1.7,0.9-2.3
		c0.6-0.6,1.4-1,2.3-1h44.5V1110c0-1.2,0.7-2.4,1.8-2.9c1.1-0.6,2.4-0.4,3.4,0.3l36.9,27.4c0.8,0.6,1.3,1.6,1.3,2.6
		C1192.9,1138.4,1192.5,1139.4,1191.6,1140z"/>
	<linearGradient id="SVGID_2_" gradientUnits="userSpaceOnUse" x1="176.5287" y1="708.0806" x2="1193.5352" y2="708.0806">
		<stop  offset="0" style="stop-color:#75C9BB"/>
		<stop  offset="1" style="stop-color:#469395"/>
	</linearGradient>
	<path class="st1" d="M1193,861.8l0.5,0V291.1c0-36.5-10.4-65.9-31-88.2c-20.7-19.6-24.3-31.9-54.8-36.8
		c-29.4-4.9-50.7-0.5-78.4,13.1c-30,15.3-52,38.1-66.2,68.6L768.6,702.8c-17.4,37.6-32.1,72-44.1,103.4
		c-12,31.3-21.5,59.8-28.6,85.4l-73.5-188.7l-200.2-460c-7.6-14.7-16.5-27.5-26.6-38.4c-10.1-10.9-22.2-19.6-36.4-26.1
		c-28.9-14.2-51.2-18.8-81.7-13.9c-15.3,2.2-29.4,6-42.5,11.4c-13.1,5.5-17.2,13.4-27,23.7c-20.7,22.9-31,51.8-31,86.6v847.4l0.2,0
		c-0.4,4-0.7,8-0.7,12.1c0,59.6,48.3,108,108,108c59.6,0,108-48.3,108-108c0-0.5-0.1-0.9-0.1-1.4h0.2c0-2.2-0.2-4.4-0.3-6.7l0.5,0
		V885.8l-3.3-229.6l58,172.4l129.9,332.5c18.5,60.5,56.6,91.2,114.4,92.3c54.5,0.5,92-28.9,112.8-88.2l128.3-335l56.4-171.6
		l-2.5,170v29.8l0.6,0c-0.5,4.3-0.9,8.7-0.9,13.1c0,57.2,46.4,103.6,103.6,103.6c57.2,0,103.6-46.4,103.6-103.6
		C1193.5,868.4,1193.3,865.1,1193,861.8z"/>
</g>
</svg>
