<?xml version="1.0" encoding="utf-8"?>
<!-- Generator: Adobe Illustrator 25.0.0, SVG Export Plug-In . SVG Version: 6.00 Build 0)  -->
<svg version="1.1" id="Layer_1" xmlns="http://www.w3.org/2000/svg" xmlns:xlink="http://www.w3.org/1999/xlink" x="0px" y="0px"
	 viewBox="0 0 1417.3 1417.3" style="enable-background:new 0 0 1417.3 1417.3;" xml:space="preserve">
<style type="text/css">
	.st0{fill:#FFFFFF;}
</style>
<g>
	<path class="st0" d="M1230.4,1050.8c-63.8-47.5-104.5,10.7-114.4,27.3c-0.6,0.9-1.9,0.9-2.5,0c-9.9-16.6-50.6-74.8-114.4-27.3
		c-22.4,16.6-58.7,89.6,22.1,156.4c19.4,16.1,59.7,44,80.8,65.1c4.5,4.2,8.7,9.1,12.6,14.6c0.1,0.2,0.3,0.2,0.4,0
		c3.9-5.5,8.1-10.4,12.6-14.6c21-21,61.3-49,80.7-65.1C1289.1,1140.4,1252.8,1067.4,1230.4,1050.8z M1121.2,1104.6
		c-0.8-0.6-1.3-1.6-1.3-2.6c0-1,0.5-2,1.3-2.6l39-28.8c1-0.7,2.3-0.8,3.4-0.3c1.1,0.6,1.8,1.7,1.8,2.9v11.8h51.1
		c0.8,0,1.7,0.3,2.3,0.9c0.6,0.6,1,1.5,1,2.3v27.7c0,0.8-0.4,1.7-1,2.3c-0.6,0.6-1.5,1-2.3,1h-51.1v11.8c0,1.2-0.7,2.3-1.8,2.9
		c-1.1,0.5-2.4,0.4-3.4-0.3L1121.2,1104.6z M1219.9,1164.9l-39,28.8c-1,0.8-2.5,0.9-3.6,0.3c-1.2-0.6-1.9-1.8-1.9-3.1v-11.6h-47.1
		c-0.9,0-1.8-0.4-2.4-1c-0.7-0.7-1-1.5-1-2.5v-27.7c0-0.9,0.4-1.8,1-2.5c0.6-0.6,1.5-1,2.4-1h47.1v-11.6c0-1.3,0.7-2.5,1.9-3.1
		c1.1-0.6,2.6-0.5,3.6,0.3l39,29c0.9,0.6,1.4,1.7,1.4,2.8S1220.8,1164.2,1219.9,1164.9z"/>
	<path class="st0" d="M1221.4,870.7l0.5,0V266.9c0-38.6-10.9-69.7-32.8-93.3c-21.9-20.7-25.7-33.7-57.9-38.9
		c-31.1-5.2-53.6-0.6-83,13.8c-31.7,16.1-55,40.3-70,72.6L772.4,702.5c-18.4,39.8-34,76.2-46.7,109.3
		c-12.7,33.1-22.8,63.2-30.2,90.3l-77.8-199.6L406,215.9c-8.1-15.6-17.4-29.1-28.1-40.6c-10.7-11.5-23.5-20.7-38.5-27.7
		c-30.5-15-54.2-19.9-86.4-14.7c-16.1,2.3-31.1,6.3-44.9,12.1c-13.8,5.8-18.2,14.1-28.5,25.1c-21.9,24.2-32.8,54.7-32.8,91.6v896.3
		l0.2,0c-0.5,4.2-0.8,8.5-0.8,12.8c0,63.1,51.1,114.2,114.2,114.2c63.1,0,114.2-51.1,114.2-114.2c0-0.5-0.1-1-0.1-1.5h0.2
		c0-2.4-0.2-4.7-0.4-7l0.5,0V896.1l-3.5-242.8l61.4,182.4l137.4,351.7c19.6,64,59.9,96.5,121,97.7c57.6,0.6,97.4-30.5,119.3-93.3
		l135.7-354.3l59.6-181.5l-2.6,179.8v31.6l0.6,0c-0.6,4.6-1,9.2-1,13.9c0,60.5,49,109.5,109.5,109.5s109.5-49,109.5-109.5
		C1221.9,877.6,1221.7,874.1,1221.4,870.7z"/>
</g>
</svg>
